<?xml version="1.0" encoding="UTF-8"?><svg id="Layer_2" xmlns="http://www.w3.org/2000/svg" viewBox="0 0 720.33 765.57"><defs><style>.cls-1{fill:#00aeef;}</style></defs><g id="Layer_1-2"><path class="cls-1" d="M475.87,740.17v25.4H250.7v-25.39l-.12,.1c1.42-.07,2.84-.19,4.27-.19,72.29,0,144.57,0,216.86,0,1.42,0,2.84,.12,4.27,.18l-.11-.09Z"/><path class="cls-1" d="M25.39,514.87H0v-205.68H25.4l-.09-.11c.06,1.42,.18,2.84,.18,4.27,0,65.79,0,131.58,0,197.37,0,1.42-.12,2.84-.19,4.27l.1-.12Z"/><path class="cls-1" d="M147.69,19.18h25.41c.96,3.72,.39,7.2,.49,10.63,.1,3.5,.02,7.01,.02,10.51v10.77h12.78c.39,4.01,.16,7.73,.2,11.43,.04,3.76,0,7.53,0,11.29v22.37h44.62v-25.55h19.46l-.1-.12c.06,.64,.19,1.29,.19,1.93,.01,15.84,0,31.68,0,47.52,0,.61-.13,1.23-.19,1.78-5.46,.83-86.84,.58-89.88-.35V51.08h-12.89V19.08l-.11,.1Z"/><path class="cls-1" d="M701.15,514.89v25.56h-25.39v64.01c-2.24,.14-4.11,.27-6.41,.41-.14,2.03-.27,4.02-.44,6.49h-18.95v18.95h-25.66v19.37h-19.84l.15,.14c.27-14.98-.15-29.96,.23-45.3h45.15v-89.74h4.57c11.16,0,22.32-.02,33.48,0,4.41,0,8.81,.11,13.22,.18l-.11-.09Z"/><path class="cls-1" d="M578.76,19.18h25.81v31.96h12.95c.28,5.07,.1,9.83,.14,14.58,.03,4.81,0,9.61,0,14.42v86.76c2.2,.14,4.09,.25,6.39,.39v31.86h25.23c1.11,3.51,.49,6.75,.57,9.92,.08,3.24-.11,6.48-.19,9.72l.14-.15c-13.63-.03-27.26-.05-40.89-.09-1.36,0-2.72-.13-4.39-.22v-44.56c-2.21-.12-4.1-.23-6.44-.36V51.42c-6.59-.51-12.78,.18-19.23-.46V19.08l-.11,.1Z"/><path class="cls-1" d="M70.67,218.8v-19.37h25.36v-32.06c2.26-.15,4.14-.27,6.43-.43,.44-9.62,.14-19.18,.19-28.72,.06-9.61,.01-19.23,.01-28.84V51.28h12.94V19.37c6.83-.07,13.28-.13,19.73-.19l-.11-.1c-.06,10.6-.11,21.2-.17,32.18h-13.16v115.57c-2.29,.22-4.15,.39-6.34,.6v51.22h-45.03l.14,.15Z"/><path class="cls-1" d="M250.67,70.63v-19.18h225.19v19.16l.11-.09c-1.42,.06-2.84,.18-4.27,.18-72.29,0-144.57,0-216.86,0-1.42,0-2.84-.12-4.27-.19l.1,.12Z"/><path class="cls-1" d="M115.89,649.68h-19.59c-.34-6.16,.06-12.45-.25-19.07h-25.49v-19.06h-19.22c-.23-4.92-.09-9.54-.12-14.15-.03-4.67,0-9.34,0-14.01v-42.72H25.76c-.61-8.83,.01-17.34-.37-25.81l-.1,.12c.38-.06,.77-.16,1.15-.16,13.89-.02,27.78-.03,41.66,0,.72,0,1.43,.28,2.5,.5v89.48h45.13v45.03l.15-.14Z"/><path class="cls-1" d="M701.12,309.22h19.21v205.67c-6.54,0-12.86,0-19.18,0l.11,.09c.03-1.43,.09-2.85,.09-4.28,0-65.91,0-131.82,0-197.73,0-1.3-.05-2.59-.08-3.89l-.15,.14Z"/><path class="cls-1" d="M475.87,70.62h19.33v25.55h38.52c.08-14.77-.02-29.61,.05-44.93h12.94V19.37c6.82-.06,13.26-.13,19.71-.19l-.11-.1c-.06,10.6-.11,21.21-.17,32.29h-12.91V121.73c-5.86,.85-74.18,.59-77.17-.3,0-1.46,0-3,0-4.54-.03-15.45-.06-30.9-.09-46.36l-.11,.09Z"/><path class="cls-1" d="M649.67,218.8h25.83c.25,3.71,.08,7.55,.11,11.38,.03,3.89,0,7.78,0,11.68v47.44c8.6,.53,16.97-.04,25.5,.34v19.59l.15-.14h-51.15c-.09-1.79-.2-3.05-.2-4.32-.02-8.96,0-17.92-.01-26.89-.02-19.74-.05-39.48-.08-59.22l-.14,.15Z"/><path class="cls-1" d="M25.4,309.19v-19.56c8.66-.29,17.02,.03,25.7-.2v-70.29c3.47-1.05,6.7-.46,9.87-.53,3.23-.07,6.47,.12,9.71,.19l-.14-.15c-.03,1.56-.08,3.12-.08,4.67,0,26.89,0,53.77,0,80.66v5.1H25.31l.09,.11Z"/><path class="cls-1" d="M250.7,740.18h-25.55v-19.44h-57.48c-1.04-3.5-.46-6.73-.53-9.9-.07-3.23,.12-6.47,.19-9.71l-.14,.15h83.59c0,3.38,.01,6.2,0,9.03-.06,9.99-.13,19.98-.2,29.97l.12-.1Z"/><path class="cls-1" d="M559.25,701.12v19.35h-63.78v19.33c-6.75,.6-13.2,.02-19.6,.37l.11,.09v-38.9c2.05,0,3.58,0,5.1,0,26.11-.03,52.21-.05,78.32-.08l-.14-.15Z"/><path class="cls-1" d="M167.34,701.12h-25.92v-31.86h-25.21c-1-3.49-.44-6.71-.51-9.88-.07-3.23,.12-6.47,.2-9.7l-.15,.14h51.45v51.45l.14-.15Z"/><path class="cls-1" d="M604.46,649.68v19.32h-25.36c-.36,10.87,.06,21.41-.25,32.12h-19.61l.14,.15v-51.45h45.21l-.15-.14Z"/><path class="cls-1" d="M135.35,19.18V0h12.34V19.18l.11-.1h-12.56l.11,.1Z"/><path class="cls-1" d="M566.42,19.18V0h12.34V19.18l.11-.1h-12.56l.11,.1Z"/><path class="cls-1" d="M495.23,534.43v-32.35h38.21v38.34h-38.06v32.14h-31.9c-.39,10.8,.05,21.23-.26,31.88h-206.14v-31.58h-38.39v-32.13c-10.82-.53-21.26,.04-31.88-.33v-37.97c2.76-.78,30.95-1.05,37.83-.34,.85,3.35,.29,6.84,.39,10.27,.1,3.63,.02,7.27,.02,10.91v10.83h31.88c.03,5.62,.06,10.88,.08,16.15,.01,5.16,0,10.33,0,15.74h206.24v-31.55h31.98Z"/><path class="cls-1" d="M450.56,327.72c-.15-1.99-.28-3.76-.44-5.8-1.99-.12-3.89-.23-6.05-.36-.14-1.99-.26-3.87-.41-6.06-1.84-.15-3.6-.29-5.34-.44-.88-2.72-1.22-30.23-.43-38.3,1.79-.15,3.66-.31,5.73-.49,.15-1.91,.28-3.68,.44-5.72h63.71c.15,1.8,.31,3.66,.49,5.75,2.05,.12,3.96,.24,5.83,.35,.85,2.72,1.14,31.81,.36,38.33-1.92,.14-3.93,.3-6.22,.47-.11,1.98-.22,3.87-.35,6.04-1.87,.14-3.63,.27-5.86,.44-.12,1.84-.25,3.71-.39,5.79h-51.06Z"/><path class="cls-1" d="M282.45,321.54c-1.96,.14-3.73,.27-5.7,.41-.15,1.95-.28,3.71-.43,5.74h-57.64v-12.22c-2.29-.17-4.05-.29-6.08-.44v-38.29c1.85-.14,3.62-.28,5.69-.44,.18-1.89,.35-3.76,.54-5.82h57.44c.14,1.89,.28,3.65,.44,5.77l5.3,.4c.93,2.67,1.3,36.25,.45,44.88Z"/></g></svg>